<svg width="14" height="20" viewBox="0 0 14 20" fill="none" xmlns="http://www.w3.org/2000/svg">
<g clip-path="url(#clip0_2_537)">
<path d="M12.7108 0C13.6858 0.380298 14.0579 1.15235 13.9929 2.23902C13.9471 3.00191 14.0586 3.77472 13.8772 4.53074C13.5072 6.06644 12.2222 7.08973 10.7424 7.02635C9.32886 6.96525 8.1166 5.81749 7.86878 4.28179C7.82854 4.03284 7.74169 3.95724 7.52212 3.98015C7.34349 3.99924 7.16133 3.99236 6.98129 3.98015C6.65298 3.95876 6.42635 3.70447 6.43411 3.38297C6.44188 3.07522 6.66146 2.84231 6.97141 2.81405C7.00741 2.811 7.04342 2.81329 7.07943 2.81252C7.56189 2.80183 7.80335 2.54194 7.80382 2.03284C7.80382 0.900344 8.1639 0.365025 9.17142 0H12.7108V0Z" fill="#38445E"/>
<path d="M7.93303 15.0294C7.79959 15.1936 7.67391 15.3662 7.52988 15.5189C7.24605 15.8213 6.89939 16.0054 6.50189 16.0222C4.83 16.0947 3.15598 16.0917 1.4848 16.0291C0.620606 15.9962 -0.00282413 15.2051 1.94723e-08 14.2895C0.00282417 13.3746 0.628373 12.5987 1.4968 12.5621C2.71047 12.5109 3.92768 12.5216 5.14277 12.5438C5.53462 12.5506 5.80927 12.4384 6.08109 12.1238C6.91916 11.1532 7.78194 10.2085 8.64895 9.26847C9.60634 8.22914 10.7381 7.92062 12.0182 8.4422C13.2177 8.93017 13.9746 10.1268 13.9838 11.5625C14 14.1276 13.9908 16.6919 13.9873 19.257C13.9866 19.8038 13.7938 19.9993 13.2784 19.9993C11.7499 20.0008 10.2213 20.0008 8.69202 19.9993C8.20838 19.9993 8.0234 19.7992 8.02199 19.2639C8.01917 17.871 8.02128 16.4788 8.02128 15.0859L7.93303 15.0287V15.0294Z" fill="#38445E"/>
<path d="M5.92647 8.7079C5.92647 9.37228 5.93071 10.0359 5.92506 10.7003C5.92082 11.1394 5.73514 11.3555 5.33269 11.3585C4.06889 11.3669 2.80508 11.3669 1.54057 11.3585C1.14449 11.3562 0.946089 11.1317 0.944677 10.698C0.939029 9.357 0.939029 8.01603 0.944677 6.6743C0.946795 6.24207 1.15084 6.02596 1.54481 6.01679C1.9176 6.00839 2.2918 6.02901 2.66388 6.00916C2.86863 5.99847 2.90393 6.08781 2.89546 6.27796C2.88345 6.52462 2.88204 6.77357 2.89687 7.01947C2.91805 7.37991 3.14822 7.60595 3.45746 7.59526C3.75329 7.58533 3.95804 7.36235 3.97287 7.01489C3.98346 6.75524 3.98487 6.49408 3.97287 6.23367C3.9651 6.06414 4.01452 6.0061 4.17479 6.01068C4.57159 6.02138 4.96979 6.00534 5.36658 6.01756C5.72031 6.02901 5.9187 6.24818 5.92365 6.63611C5.93212 7.32646 5.92577 8.01603 5.92647 8.70637V8.7079Z" fill="#2C90C2"/>
</g>
<defs>
<clipPath id="clip0_2_537">
<rect width="14" height="20" fill="white"/>
</clipPath>
</defs>
</svg>
